<?xml version="1.0" standalone="no"?>
<!DOCTYPE svg PUBLIC "-//W3C//DTD SVG 20010904//EN"
 "http://www.w3.org/TR/2001/REC-SVG-20010904/DTD/svg10.dtd">
<svg version="1.0" xmlns="http://www.w3.org/2000/svg"
 width="600.000000pt" height="600.000000pt" viewBox="0 0 600.000000 600.000000"
 preserveAspectRatio="xMidYMid meet">
<metadata>
Created by potrace 1.14, written by Peter Selinger 2001-2017
</metadata>
<g transform="translate(0.000000,600.000000) scale(0.100000,-0.100000)"
fill="#000000" stroke="none">
<path d="M2290 2898 c-39 -21 -94 -110 -125 -200 -31 -93 -40 -109 -49 -82 -3
11 -37 49 -75 87 -60 58 -74 67 -106 67 -48 0 -82 -21 -122 -75 -55 -73 -62
-199 -20 -325 l23 -69 -40 -18 c-22 -10 -67 -35 -98 -55 -58 -38 -58 -38 -44
-10 26 51 56 164 56 214 0 108 -70 165 -170 138 -24 -6 -86 -40 -140 -76 -219
-144 -369 -348 -387 -528 -4 -48 -11 -67 -33 -91 -45 -48 -114 -164 -148 -245
-86 -210 -98 -401 -35 -569 18 -48 89 -161 101 -161 4 0 19 -11 34 -25 14 -13
55 -34 90 -46 95 -32 208 -20 316 33 18 9 29 8 61 -10 26 -15 52 -21 79 -19
38 3 41 1 64 -42 36 -68 61 -73 139 -26 87 52 99 64 99 95 0 24 5 29 46 39 52
13 57 11 61 -25 8 -55 58 -79 158 -76 81 2 132 21 229 86 100 68 129 95 170
160 65 102 89 184 96 321 0 6 29 9 68 8 81 -1 148 10 257 44 79 24 95 30 192
76 50 24 55 26 168 98 109 69 220 197 231 264 1 6 7 35 13 65 13 65 9 105 -18
164 -38 87 -114 168 -141 151 -4 -3 -18 3 -31 14 -16 13 -22 27 -21 54 3 71
-74 128 -167 121 -86 -6 -146 -52 -181 -139 -13 -33 -27 -65 -32 -72 -5 -6 -8
-44 -7 -85 1 -59 -3 -81 -21 -113 -31 -55 -38 -63 -94 -101 l-50 -34 -17 44
c-9 25 -27 59 -39 76 -12 17 -19 35 -14 39 5 4 30 24 56 44 76 61 117 119 163
234 l43 107 -30 43 c-43 64 -67 76 -146 75 -37 0 -89 -6 -115 -12 -27 -6 -52
-8 -55 -6 -4 2 -7 36 -6 74 2 71 -19 172 -48 227 -34 64 -132 102 -188 73z
m-601 -810 c-30 -44 -29 -43 -29 -31 0 11 38 63 46 63 3 0 -5 -15 -17 -32z
m-429 -392 c14 -2 59 -7 100 -10 156 -13 175 -19 152 -51 -10 -16 -136 -68
-139 -58 -19 56 -94 109 -163 116 -17 2 -33 7 -38 12 -6 7 11 5 88 -9z m225
-206 c-3 -5 -14 -10 -23 -9 -14 0 -13 2 3 9 27 11 27 11 20 0z"/>
</g>
</svg>
